<svg viewBox="0 0 32 32" xmlns="http://www.w3.org/2000/svg" aria-label="Airbnb" style="height:32px;width:32px" display="block" fill="#210034">
    <path d="M16.5 1c2.008 0 3.463.963 4.751 3.268l.533 1.026c1.954 3.83 6.114 12.54 7.1 14.836l.145.353c.667 1.591.91 2.472.96 3.396l.01.415.001.228C30 28.584 27.124 31 23.643 31c-2.225 0-4.556-1.258-6.709-3.386l-.257-.26-.172-.179h-.011l-.176.185c-2.044 2.1-4.267 3.42-6.414 3.615l-.28.019-.267.006C5.877 31 3 28.584 3 24.522l.005-.469c.026-.928.23-1.768.83-3.244l.216-.524c.966-2.298 6.083-12.989 7.707-16.034C13.037 1.963 14.492 1 16.5 1zm0 2c-1.239 0-2.053.539-2.987 2.21l-.523 1.008c-1.926 3.776-6.06 12.43-7.031 14.692l-.345.836c-.427 1.071-.573 1.655-.605 2.24l-.009.33v.206C5 27.394 6.911 29 9.357 29c1.773 0 3.87-1.236 5.831-3.354-2.295-2.938-3.855-6.45-3.855-8.91 0-2.913 1.933-5.385 5.178-5.42 3.223.035 5.156 2.507 5.156 5.42 0 2.456-1.555 5.96-3.855 8.907C19.777 27.766 21.87 29 23.642 29 26.09 29 28 27.394 28 24.522l-.004-.411c-.019-.672-.17-1.295-.714-2.62l-.249-.6c-1.064-2.478-5.992-12.768-7.537-15.664C18.553 3.539 17.74 3 16.5 3zm.01 10.316c-2.01.021-3.177 1.514-3.177 3.42 0 1.797 1.18 4.58 2.955 7.044l.21.287.174-.234c1.73-2.385 2.898-5.066 2.989-6.875l.006-.221c0-1.907-1.167-3.4-3.156-3.421z"></path>
</svg>